<svg xmlns="http://www.w3.org/2000/svg" width="512" height="512" viewBox="0 0 512 512"><g id="Background"><rect x="48" y="48" width="416" height="416" rx="96" fill="#24253f"/></g><g id="Sheet"><g transform="translate(-8 6)"><rect x="120" y="116" width="256" height="244" rx="24" fill="none" stroke="#dad7ff" stroke-width="24"/><path d="M120 188h256M120 260h136M204 188v160" fill="none" stroke="#dad7ff" stroke-width="20"/></g></g><g id="Link-backing"><g transform="translate(-8 6)"><rect x="229" y="229" width="204" height="178" rx="62" fill="#24253f"/></g></g><g id="Link"><g transform="translate(-8 6)"><g transform="rotate(-35 326 316)" fill="none" stroke="#79e8c5" stroke-width="24" stroke-linecap="round"><path d="M302 276h-26a40 40 0 0 0 0 80h26M350 276h26a40 40 0 0 1 0 80h-26M292 316h68"/></g></g></g></svg>