<svg xmlns="http://www.w3.org/2000/svg" width="440" height="280" viewBox="0 0 440 280"><rect width="440" height="280" fill="#f3f1ff" /><g transform="translate(164 14) scale(.21875)"><g id="Background"><rect x="48" y="48" width="416" height="416" rx="96" fill="#424e16" /></g><g id="Sheet" transform="translate(8 18)"><rect x="120" y="116" width="256" height="244" rx="24" fill="none" stroke="#f5facc" stroke-width="24" /><path d="M120 188h256M120 260h136M204 188v160" fill="none" stroke="#f5facc" stroke-width="20" /></g><g id="Link-backing" transform="translate(8 18)"><rect x="229" y="229" width="204" height="178" rx="62" fill="#424e16" /></g><g id="Link" transform="translate(8 18)"><g transform="rotate(-35 326 316)" fill="none" stroke="#a8be1a" stroke-width="24" stroke-linecap="round"><path d="M302 276h-26a40 40 0 0 0 0 80h26M350 276h26a40 40 0 0 1 0 80h-26M292 316h68" /></g></g></g><text x="220" y="163" text-anchor="middle" font-family="Helvetica" font-weight="bold" font-size="30" fill="#24253f">Morn Sheet Link</text><text x="220" y="200" text-anchor="middle" font-family="Helvetica" font-size="18" fill="#454562">Copy a range. Keep its name.</text><rect x="62" y="222" width="316" height="34" rx="8" fill="#24253f" /><text x="220" y="244" text-anchor="middle" font-family="Helvetica" font-size="16" fill="#79e8c5">File_Tab_B2:D10</text></svg>